<?xml version="1.0" standalone="no"?>
<!DOCTYPE svg PUBLIC "-//W3C//DTD SVG 20010904//EN"
 "http://www.w3.org/TR/2001/REC-SVG-20010904/DTD/svg10.dtd">
<svg version="1.0" xmlns="http://www.w3.org/2000/svg"
 width="200.000000pt" height="200.000000pt" viewBox="0 0 200.000000 200.000000"
 preserveAspectRatio="xMidYMid meet">

<g transform="translate(0.000000,200.000000) scale(0.100000,-0.100000)"
fill="#000000" stroke="none">
<path d="M900 1994 c-14 -2 -52 -9 -85 -15 -393 -68 -709 -383 -796 -794 -17
-77 -17 -293 0 -370 87 -411 385 -709 796 -796 33 -7 116 -13 185 -13 69 0
152 6 185 13 411 87 709 385 796 796 7 33 13 116 13 185 0 69 -6 152 -13 185
-86 405 -381 706 -776 791 -70 15 -258 26 -305 18z m268 -397 l112 -112 -113
-113 -112 -112 -115 115 -115 115 110 110 c60 60 112 110 115 110 3 0 56 -51
118 -113z m-246 -234 c60 -59 108 -112 108 -118 0 -6 -50 -60 -110 -120 l-110
-110 -115 115 -115 115 112 112 c62 62 115 113 118 113 2 0 53 -48 112 -107z
m253 -253 l110 -110 -110 -110 c-60 -60 -114 -110 -120 -110 -6 0 -60 50 -120
110 l-110 110 110 110 c60 61 114 110 120 110 6 0 60 -49 120 -110z m-253
-237 c60 -59 108 -110 108 -113 0 -3 -50 -56 -112 -118 l-112 -112 -113 112
-113 113 112 112 c62 62 115 113 118 113 2 0 53 -48 112 -107z m243 -473
l-115 -115 -112 113 -113 112 115 115 115 115 112 -112 113 -113 -115 -115z"/>
</g>
</svg>
